<?xml version="1.0" encoding="utf-8"?>
<!-- Generator: Adobe Illustrator 22.1.0, SVG Export Plug-In . SVG Version: 6.00 Build 0)  -->
<svg version="1.1" id="图层_1" xmlns="http://www.w3.org/2000/svg" xmlns:xlink="http://www.w3.org/1999/xlink" x="0px" y="0px"
	 viewBox="0 0 1440 900" style="enable-background:new 0 0 1440 900;" xml:space="preserve">
<style type="text/css">
	.st0{fill:none;}
	.st1{fill:#3F3E32;}
	.st2{font-family:'BreeSerif-Regular';}
	.st3{font-size:45.4003px;}
	.st4{fill:none;stroke:#3C3C3B;stroke-width:3.7834;stroke-miterlimit:10;}
	.st5{font-family:'FiraSans-Light';}
	.st6{font-size:13.6201px;}
	.st7{fill:none;stroke:#000000;stroke-miterlimit:10;}
	.st8{fill:none;stroke:#202020;stroke-miterlimit:10;}
	.st9{fill:#202020;}
	.st10{fill:#202020;stroke:#202020;stroke-miterlimit:10;}
	.st11{fill:#FFFFFF;}
</style>
<image style="overflow:visible;" width="1441" height="900" xlink:href="50630A94A088F8AA.jpg"  transform="matrix(1 0 0 1 -2 0)">
</image>
<g>
	<rect x="851.2" y="155.3" class="st0" width="376.8" height="152.7"/>
	<text id="Text1" transform="matrix(1 0 0 1 856.2572 187.6926)"><tspan x="0" y="0" class="st1 st2 st3">The era of the new </tspan><tspan x="123.1" y="54.5" class="st1 st2 st3">“green gold”</tspan></text>
	<line class="st4" x1="1200.9" y1="280.6" x2="1226.7" y2="280.6"/>
	<rect x="860" y="313.4" class="st0" width="367.7" height="257.6"/>
	<text transform="matrix(1 0 0 1 872.6646 323.5308)"><tspan x="0" y="0" class="st5 st6">Avocado is today the absolute star of Instagram posts and </tspan><tspan x="0.8" y="16.3" class="st5 st6">healthy diets. It entered the commercial market in the 90s </tspan><tspan x="12.8" y="32.7" class="st5 st6">as once a exotic tropical fruit, and in 2017 more than 135 </tspan><tspan x="-8.9" y="49" class="st5 st6">millions kilos of avocado were consumed in the occasion of </tspan><tspan x="-0.9" y="65.4" class="st5 st6">the Super Bowl week. In the same year’s summer the price </tspan><tspan x="7.3" y="81.7" class="st5 st6">of the so-called ‘green gold’ reached its peak, after a fast </tspan><tspan x="28.3" y="98.1" class="st5 st6">but constant growth, a sign of its rising economic and </tspan><tspan x="244.7" y="114.4" class="st5 st6">commercial value.</tspan></text>
</g>
<polyline class="st7" points="-1,924 -1,0.4 1439,0.4 1439,924 "/>
<path class="st7" d="M91.2,264.3L116.7,470l131.4-14.4l5.7-2.8c4.3-2.2,9.2-2.9,14-2.2v0l35.1-1.7l-1.5-2.1
	c-2.6-3.6-1.6-8.6,2.1-10.9l46.6-29.5c2.3-1.5,5.1-2.3,7.8-2.3l0,0c3.4,0,6.6,1.2,9.2,3.3l10.1,8.7v0c2.7-3.5,5.9-6.5,9.7-8.9
	l7.9-5.1c1.5-0.9,3.1-1.5,4.8-1.8l10.6-1.4c4.6-0.6,9.2,1.6,11.6,5.6l3.3,5.6l7.5-6.4l-18.6-176.6L91.2,264.3z"/>
<image style="overflow:visible;" width="1015" height="690" xlink:href="tablet.png"  transform="matrix(0.5 0 0 0.5 722 502)">
</image>
</svg>
